# xmcd CD database file
#
# Track frame offsets:
#	150
#	18051
#	37125
#	56602
#	87486
#	105822
#	128189
#	158448
#	181254
#	213506
#	236162
#	254904
#	274783
#	309654
#
# Disc length: 4320 seconds
#
# Revision: 2
# Processed by: cddbd v1.4PL0 Copyright (c) Steve Scherf et al.
# Submitted via: CDex 1.40Beta9
#
DISCID=be10de0e
DTITLE=Gary Moore - Ballads and Blues 1982-1994
DYEAR=1900
DGENRE=Blues
TTITLE0=Always gonna love you
TTITLE1=still got the blues
TTITLE2=empty rooms
TTITLE3=parisienne walkways
TTITLE4=one day
TTITLE5=seperate ways
TTITLE6=story of the blues
TTITLE7=crying in the shadows
TTITLE8=with love (remember)
TTITLE9=midnight blues
TTITLE10=falling in love with you
TTITLE11=jumpin' at shadows
TTITLE12=blues for narada
TTITLE13=johnny boy
EXTD=ID3G: 0
EXTT0=
EXTT1=
EXTT2=
EXTT3=
EXTT4=
EXTT5=
EXTT6=
EXTT7=
EXTT8=
EXTT9=
EXTT10=
EXTT11=
EXTT12=
EXTT13=
PLAYORDER=
